<mxfile host="app.diagrams.net" modified="2023-08-17T09:54:42.518Z" agent="Mozilla/5.0 (X11; Ubuntu; Linux x86_64; rv:109.0) Gecko/20100101 Firefox/116.0" etag="xt-qXocE7gQ_acdraWY_" version="21.5.0" type="github">
  <diagram id="C5RBs43oDa-KdzZeNtuy" name="Page-1">
    <mxGraphModel dx="778" dy="428" grid="1" gridSize="10" guides="1" tooltips="1" connect="1" arrows="1" fold="1" page="1" pageScale="1" pageWidth="827" pageHeight="1169" math="0" shadow="0">
      <root>
        <mxCell id="WIyWlLk6GJQsqaUBKTNV-0" />
        <mxCell id="WIyWlLk6GJQsqaUBKTNV-1" parent="WIyWlLk6GJQsqaUBKTNV-0" />
        <mxCell id="LNRG-VUlBits3XGj2IhA-0" value="Handle" style="rounded=1;whiteSpace=wrap;html=1;" vertex="1" parent="WIyWlLk6GJQsqaUBKTNV-1">
          <mxGeometry x="320" y="80" width="200" height="60" as="geometry" />
        </mxCell>
        <mxCell id="LNRG-VUlBits3XGj2IhA-1" value="" style="rounded=1;whiteSpace=wrap;html=1;arcSize=6;" vertex="1" parent="WIyWlLk6GJQsqaUBKTNV-1">
          <mxGeometry x="320" y="170" width="200" height="360" as="geometry" />
        </mxCell>
        <mxCell id="LNRG-VUlBits3XGj2IhA-2" value="View" style="rounded=1;whiteSpace=wrap;html=1;" vertex="1" parent="WIyWlLk6GJQsqaUBKTNV-1">
          <mxGeometry x="600" y="80" width="200" height="60" as="geometry" />
        </mxCell>
        <mxCell id="LNRG-VUlBits3XGj2IhA-3" value="" style="rounded=1;whiteSpace=wrap;html=1;arcSize=6;" vertex="1" parent="WIyWlLk6GJQsqaUBKTNV-1">
          <mxGeometry x="600" y="160" width="200" height="360" as="geometry" />
        </mxCell>
        <mxCell id="LNRG-VUlBits3XGj2IhA-4" value="Setup" style="rounded=1;whiteSpace=wrap;html=1;" vertex="1" parent="WIyWlLk6GJQsqaUBKTNV-1">
          <mxGeometry x="80" y="200" width="200" height="60" as="geometry" />
        </mxCell>
        <mxCell id="LNRG-VUlBits3XGj2IhA-5" value="Exit" style="rounded=1;whiteSpace=wrap;html=1;" vertex="1" parent="WIyWlLk6GJQsqaUBKTNV-1">
          <mxGeometry x="80" y="360" width="200" height="60" as="geometry" />
        </mxCell>
        <mxCell id="LNRG-VUlBits3XGj2IhA-6" value="TIme Tick" style="rounded=1;whiteSpace=wrap;html=1;" vertex="1" parent="WIyWlLk6GJQsqaUBKTNV-1">
          <mxGeometry x="80" y="280" width="200" height="60" as="geometry" />
        </mxCell>
        <mxCell id="LNRG-VUlBits3XGj2IhA-7" value="Setup" style="rounded=1;whiteSpace=wrap;html=1;" vertex="1" parent="WIyWlLk6GJQsqaUBKTNV-1">
          <mxGeometry x="190" y="480" width="80" height="35" as="geometry" />
        </mxCell>
        <mxCell id="LNRG-VUlBits3XGj2IhA-8" value="Exit" style="rounded=1;whiteSpace=wrap;html=1;" vertex="1" parent="WIyWlLk6GJQsqaUBKTNV-1">
          <mxGeometry x="190" y="590" width="80" height="35" as="geometry" />
        </mxCell>
        <mxCell id="LNRG-VUlBits3XGj2IhA-9" value="TIme Tick" style="rounded=1;whiteSpace=wrap;html=1;" vertex="1" parent="WIyWlLk6GJQsqaUBKTNV-1">
          <mxGeometry x="190" y="535" width="80" height="40" as="geometry" />
        </mxCell>
        <mxCell id="LNRG-VUlBits3XGj2IhA-10" value="Archery" style="rounded=1;whiteSpace=wrap;html=1;" vertex="1" parent="WIyWlLk6GJQsqaUBKTNV-1">
          <mxGeometry x="334" y="180" width="80" height="35" as="geometry" />
        </mxCell>
        <mxCell id="LNRG-VUlBits3XGj2IhA-11" value="Bang" style="rounded=1;whiteSpace=wrap;html=1;" vertex="1" parent="WIyWlLk6GJQsqaUBKTNV-1">
          <mxGeometry x="334" y="290" width="80" height="35" as="geometry" />
        </mxCell>
        <mxCell id="LNRG-VUlBits3XGj2IhA-12" value="Arrow" style="rounded=1;whiteSpace=wrap;html=1;" vertex="1" parent="WIyWlLk6GJQsqaUBKTNV-1">
          <mxGeometry x="334" y="235" width="80" height="40" as="geometry" />
        </mxCell>
        <mxCell id="LNRG-VUlBits3XGj2IhA-13" value="Border" style="rounded=1;whiteSpace=wrap;html=1;" vertex="1" parent="WIyWlLk6GJQsqaUBKTNV-1">
          <mxGeometry x="334" y="340" width="80" height="35" as="geometry" />
        </mxCell>
        <mxCell id="LNRG-VUlBits3XGj2IhA-14" value="Screen" style="rounded=1;whiteSpace=wrap;html=1;" vertex="1" parent="WIyWlLk6GJQsqaUBKTNV-1">
          <mxGeometry x="334" y="450" width="80" height="35" as="geometry" />
        </mxCell>
        <mxCell id="LNRG-VUlBits3XGj2IhA-15" value="Meteoroid" style="rounded=1;whiteSpace=wrap;html=1;" vertex="1" parent="WIyWlLk6GJQsqaUBKTNV-1">
          <mxGeometry x="334" y="395" width="80" height="40" as="geometry" />
        </mxCell>
        <mxCell id="LNRG-VUlBits3XGj2IhA-22" value="Struct" style="rounded=1;whiteSpace=wrap;html=1;" vertex="1" parent="WIyWlLk6GJQsqaUBKTNV-1">
          <mxGeometry x="430" y="180" width="80" height="35" as="geometry" />
        </mxCell>
        <mxCell id="LNRG-VUlBits3XGj2IhA-23" value="Struct" style="rounded=1;whiteSpace=wrap;html=1;" vertex="1" parent="WIyWlLk6GJQsqaUBKTNV-1">
          <mxGeometry x="430" y="290" width="80" height="35" as="geometry" />
        </mxCell>
        <mxCell id="LNRG-VUlBits3XGj2IhA-24" value="Struct" style="rounded=1;whiteSpace=wrap;html=1;" vertex="1" parent="WIyWlLk6GJQsqaUBKTNV-1">
          <mxGeometry x="430" y="235" width="80" height="40" as="geometry" />
        </mxCell>
        <mxCell id="LNRG-VUlBits3XGj2IhA-25" value="Struct" style="rounded=1;whiteSpace=wrap;html=1;" vertex="1" parent="WIyWlLk6GJQsqaUBKTNV-1">
          <mxGeometry x="430" y="340" width="80" height="35" as="geometry" />
        </mxCell>
        <mxCell id="LNRG-VUlBits3XGj2IhA-26" value="Struct" style="rounded=1;whiteSpace=wrap;html=1;" vertex="1" parent="WIyWlLk6GJQsqaUBKTNV-1">
          <mxGeometry x="430" y="450" width="80" height="35" as="geometry" />
        </mxCell>
        <mxCell id="LNRG-VUlBits3XGj2IhA-27" value="Struct" style="rounded=1;whiteSpace=wrap;html=1;" vertex="1" parent="WIyWlLk6GJQsqaUBKTNV-1">
          <mxGeometry x="430" y="395" width="80" height="40" as="geometry" />
        </mxCell>
        <mxCell id="LNRG-VUlBits3XGj2IhA-35" value="ar_game_archery_display" style="rounded=1;whiteSpace=wrap;html=1;" vertex="1" parent="WIyWlLk6GJQsqaUBKTNV-1">
          <mxGeometry x="620" y="175" width="160" height="35" as="geometry" />
        </mxCell>
        <mxCell id="LNRG-VUlBits3XGj2IhA-36" value="ar_game_meteoroid_display" style="rounded=1;whiteSpace=wrap;html=1;" vertex="1" parent="WIyWlLk6GJQsqaUBKTNV-1">
          <mxGeometry x="620" y="285" width="160" height="35" as="geometry" />
        </mxCell>
        <mxCell id="LNRG-VUlBits3XGj2IhA-37" value="ar_game_arrow_display" style="rounded=1;whiteSpace=wrap;html=1;" vertex="1" parent="WIyWlLk6GJQsqaUBKTNV-1">
          <mxGeometry x="620" y="230" width="160" height="40" as="geometry" />
        </mxCell>
        <mxCell id="LNRG-VUlBits3XGj2IhA-38" value="ar_game_border_display" style="rounded=1;whiteSpace=wrap;html=1;" vertex="1" parent="WIyWlLk6GJQsqaUBKTNV-1">
          <mxGeometry x="620" y="335" width="160" height="35" as="geometry" />
        </mxCell>
        <mxCell id="LNRG-VUlBits3XGj2IhA-39" value="Screen" style="rounded=1;whiteSpace=wrap;html=1;" vertex="1" parent="WIyWlLk6GJQsqaUBKTNV-1">
          <mxGeometry x="620" y="445" width="160" height="35" as="geometry" />
        </mxCell>
        <mxCell id="LNRG-VUlBits3XGj2IhA-40" value="ar_game_bang_display" style="rounded=1;whiteSpace=wrap;html=1;" vertex="1" parent="WIyWlLk6GJQsqaUBKTNV-1">
          <mxGeometry x="620" y="390" width="160" height="40" as="geometry" />
        </mxCell>
      </root>
    </mxGraphModel>
  </diagram>
</mxfile>
